<svg width="83" height="81" viewBox="0 0 83 81" fill="none" xmlns="http://www.w3.org/2000/svg">
<path d="M31.6852 19.7643L47.6325 25.2758V47.7595C47.6325 48.1962 47.4532 48.6151 47.134 48.9239C46.8149 49.2328 46.3821 49.4062 45.9307 49.4062H39.1239C38.6725 49.4062 38.2397 49.2328 37.9206 48.9239C37.6014 48.6151 37.4221 48.1962 37.4221 47.7595V36.232H20.405V47.7595C20.405 48.1962 20.2257 48.6151 19.9065 48.9239C19.5874 49.2328 19.1546 49.4062 18.7032 49.4062H11.8964C11.445 49.4062 11.0122 49.2328 10.6931 48.9239C10.3739 48.6151 10.1946 48.1962 10.1946 47.7595V25.7431C6.24239 24.3794 3.38776 20.7585 3.38776 16.4707C3.38776 15.5972 3.74633 14.7595 4.3846 14.1418C5.02287 13.5242 5.88855 13.1772 6.7912 13.1772C7.69384 13.1772 8.55952 13.5242 9.19779 14.1418C9.83606 14.7595 10.1946 15.5972 10.1946 16.4707C10.1963 17.3437 10.5554 18.1805 11.1933 18.7978C11.8312 19.4151 12.6959 19.7626 13.5981 19.7643H31.6852ZM57.8428 8.23683V11.5304C57.8428 13.2774 57.1256 14.9528 55.8491 16.1882C54.5726 17.4235 52.8412 18.1175 51.0359 18.1175H47.6325V21.7795L34.0187 17.0749V1.64972C34.0187 0.183058 35.8502 -0.551816 36.9233 0.485653L39.8248 3.2965H45.5287C46.6891 3.2965 48.0547 4.11165 48.5727 5.11721L49.3342 6.59005H56.1411C56.5924 6.59005 57.0252 6.76355 57.3444 7.07238C57.6635 7.38121 57.8428 7.80007 57.8428 8.23683ZM45.9307 8.23683C45.9307 7.91112 45.8309 7.59274 45.644 7.32193C45.457 7.05112 45.1912 6.84004 44.8802 6.7154C44.5693 6.59076 44.2271 6.55815 43.897 6.62169C43.5669 6.68523 43.2637 6.84207 43.0257 7.07238C42.7877 7.30269 42.6257 7.59611 42.56 7.91556C42.4943 8.235 42.528 8.56611 42.6568 8.86702C42.7856 9.16793 43.0038 9.42512 43.2836 9.60607C43.5634 9.78702 43.8925 9.8836 44.229 9.8836C44.6803 9.8836 45.1132 9.7101 45.4323 9.40127C45.7515 9.09244 45.9307 8.67358 45.9307 8.23683Z" fill="#242424"/>
<path d="M17.1032 29.5312C13.638 29.5312 10.4373 31.2503 8.51013 34.1145L1.29692 44.8123C0.448016 46.0737 -0.00342789 47.5572 4.45548e-05 49.0739V66.123C-0.00473787 67.2653 0.375607 68.3765 1.08059 69.2798C1.78557 70.183 2.7747 70.8264 3.89067 71.1077L10.6189 72.7985C11.1027 75.1113 12.3736 77.1887 14.2183 78.682C16.063 80.1754 18.3692 80.9938 20.75 81C25.5537 81 29.5636 77.7034 30.7204 73.2797H54.8734C56.0302 77.7034 60.0401 81 64.8438 81C69.6474 81 73.6573 77.7034 74.8141 73.2797H77.8125C80.6501 73.2797 83 70.9482 83 68.1328V58.7243C82.9975 56.4305 82.2225 54.2033 80.7981 52.3965C79.3737 50.5897 77.3816 49.3071 75.1383 48.7523L61.1139 45.2138L50.9828 33.2319C50.0136 32.0748 48.7997 31.1434 47.4272 30.5039C46.0546 29.8644 44.5571 29.5323 43.0407 29.5312H17.1032ZM17.1032 34.6781H28.5313V44.9719H7.45707L12.808 37.0097V36.9299C13.2779 36.2296 13.9167 35.6568 14.6663 35.2636C15.416 34.8704 16.2527 34.6691 17.1006 34.6781H17.1032ZM33.7188 34.6781H43.0407C44.5788 34.6781 46.0287 35.3524 47.0117 36.5284L54.1445 44.9719H33.7188V34.6781ZM5.18754 50.1187H59.332L73.9219 53.737C75.0414 54.0126 76.0345 54.6549 76.7406 55.56C77.4466 56.465 77.8243 57.5799 77.8125 58.7243V68.1328H74.8141C73.6573 63.7091 69.6474 60.4125 64.8438 60.4125C60.0401 60.4125 56.0302 63.7091 54.8734 68.1328H30.7204C29.5636 63.7091 25.5537 60.4125 20.75 60.4125C16.1513 60.4125 12.2892 63.4286 10.9431 67.5692L5.18754 66.1255V50.1187ZM20.75 65.5594C23.6473 65.5594 25.9375 67.8317 25.9375 70.7062C25.9375 73.5808 23.6473 75.8531 20.75 75.8531C17.8528 75.8531 15.5625 73.5808 15.5625 70.7062C15.5625 67.8317 17.8528 65.5594 20.75 65.5594ZM64.8438 65.5594C67.741 65.5594 70.0313 67.8317 70.0313 70.7062C70.0313 73.5808 67.741 75.8531 64.8438 75.8531C61.9465 75.8531 59.6563 73.5808 59.6563 70.7062C59.6563 67.8317 61.9465 65.5594 64.8438 65.5594Z" fill="#FFC41E"/>
</svg>
