<svg width="93" height="67" viewBox="0 0 93 67" fill="none" xmlns="http://www.w3.org/2000/svg">
<path fill-rule="evenodd" clip-rule="evenodd" d="M36.5614 5.2763C36.5614 3.87694 37.1166 2.53489 38.105 1.54539C39.0933 0.555894 40.4338 0 41.8315 0L73.4521 0C74.8498 0 76.1903 0.555894 77.1786 1.54539C78.1669 2.53489 78.7222 3.87694 78.7222 5.2763V18.4671H36.5614V5.2763ZM66.8645 7.91445C66.515 7.91445 66.1799 8.05343 65.9328 8.3008C65.6857 8.54818 65.5469 8.88369 65.5469 9.23353V11.8717C65.5469 12.2215 65.6857 12.557 65.9328 12.8044C66.1799 13.0518 66.515 13.1908 66.8645 13.1908L72.1345 13.1908C72.484 13.1908 72.8191 13.0518 73.0662 12.8044C73.3133 12.557 73.4521 12.2215 73.4521 11.8717V9.23353C73.4521 8.88369 73.3133 8.54818 73.0662 8.3008C72.8191 8.05343 72.484 7.91445 72.1345 7.91445H66.8645Z" fill="#FFC41E"/>
<path d="M36.5614 23.7434V26.3816C36.5614 27.7809 37.1166 29.123 38.105 30.1125C39.0933 31.102 40.4338 31.6579 41.8315 31.6579H73.4521C74.8498 31.6579 76.1903 31.102 77.1786 30.1125C78.1669 29.123 78.7222 27.7809 78.7222 26.3816V23.7434H36.5614Z" fill="#FFC41E"/>
<path fill-rule="evenodd" clip-rule="evenodd" d="M4 28.6338V62H10.3347V28.6338H4ZM2 24.6338C0.895431 24.6338 0 25.5292 0 26.6338V64C0 65.1046 0.895431 66 2 66H12.3347C13.4392 66 14.3347 65.1046 14.3347 64V26.6338C14.3347 25.5292 13.4392 24.6338 12.3347 24.6338H2Z" fill="#242424"/>
<path fill-rule="evenodd" clip-rule="evenodd" d="M16.8538 31.6577H20.8538V57.1389C23.1219 57.2432 24.8368 57.518 26.5215 57.8177C26.7318 57.8551 26.9411 57.8928 27.1505 57.9305C29.0373 58.2703 30.9346 58.6119 33.7347 58.7868L33.9774 58.802L34.2095 58.8748C45.2172 62.333 51.5812 63.3588 56.4292 62.8893C61.2111 62.4262 64.7136 60.5003 70.1243 57.3641C73.9257 55.1607 80.2302 50.3008 84.7087 46.6325C87.6662 43.6995 88.6746 42.1342 88.9382 41.3373C88.9951 41.1652 89.0014 41.0752 88.9996 41.0398C88.9955 41.0307 88.9824 41.0046 88.9485 40.9582C88.8993 40.8906 88.8213 40.8 88.6904 40.669C88.1599 40.1378 87.7298 39.9303 87.3946 39.8497C87.0567 39.7684 86.6492 39.7763 86.1016 39.9426C84.8911 40.3101 83.459 41.2864 81.504 42.7544C81.2524 42.9433 80.9943 43.1388 80.7297 43.3393C77.1495 46.0519 72.3678 49.6748 66.2165 50.1147C61.5329 50.4496 55.3063 50.2308 49.8571 49.9386C47.6511 49.8203 45.5913 49.6916 43.7946 49.5794C41.0572 49.4084 38.9302 49.2756 37.8261 49.2756V45.2756C39.0448 45.2756 41.4084 45.4227 44.3004 45.6026C46.0728 45.7129 48.0438 45.8356 50.0713 45.9443C55.5249 46.2367 61.5249 46.44 65.9312 46.1249C70.853 45.7729 74.7344 42.8473 78.472 40.0301C78.6824 39.8715 78.8925 39.7132 79.1022 39.5557C80.9417 38.1745 82.9352 36.7237 84.9394 36.1151C85.9992 35.7933 87.1463 35.6759 88.3301 35.9607C89.5167 36.2461 90.5754 36.896 91.5205 37.8422C91.9198 38.2419 92.4672 38.8495 92.771 39.7062C93.0965 40.6243 93.066 41.5954 92.7358 42.5936C92.1384 44.3995 90.457 46.5736 87.4554 49.5419L87.3892 49.6074L87.3171 49.6664C82.8467 53.3315 76.2666 58.4273 72.1302 60.8248C66.785 63.9231 62.5779 66.3126 56.8147 66.8707C51.1571 67.4185 44.1983 66.1923 33.241 62.7632C30.3326 62.5687 28.2926 62.201 26.4445 61.8678C26.2344 61.8299 26.0268 61.7925 25.8208 61.7559C23.7916 61.3948 21.8519 61.0945 18.8538 61.0945H16.8538V31.6577ZM88.9965 41.0215C88.9972 41.0211 88.9988 41.0264 88.9995 41.0388C88.9962 41.0281 88.9958 41.0219 88.9965 41.0215Z" fill="#242424"/>
<path fill-rule="evenodd" clip-rule="evenodd" d="M19.5108 33.4566C18.7141 33.5317 17.9762 33.6013 17.3211 33.6518L17.0139 29.6636C17.5511 29.6222 18.2206 29.5593 18.9748 29.4885C20.6055 29.3354 22.6321 29.1451 24.5742 29.0544C26.0213 28.9869 27.5026 28.9687 28.862 29.0602C30.1917 29.1498 31.5466 29.3523 32.6673 29.8011C35.1593 30.7991 36.8848 32.3822 38.186 33.6538C38.3524 33.8165 38.5075 33.9695 38.6541 34.1142C39.1105 34.5648 39.485 34.9344 39.8643 35.2593C40.3516 35.6767 40.6805 35.8684 40.9238 35.9498C43.3871 36.7743 46.7597 37.1477 50.0824 37.3374C51.6673 37.4279 53.1945 37.4748 54.5605 37.5168L54.7 37.521C56.0725 37.5633 57.3313 37.6028 58.2447 37.6859C58.5927 37.7176 58.9759 37.7473 59.3855 37.7791C61.4717 37.941 64.2416 38.156 66.5209 38.9497C67.9314 39.4409 69.3657 40.2152 70.4097 41.5075C71.4922 42.8474 71.9982 44.5495 71.864 46.5642C71.7563 48.1812 70.5106 49.0364 69.6175 49.4385C68.6781 49.8614 67.5005 50.0945 66.2922 50.2354C63.8377 50.5216 60.5875 50.4946 57.1934 50.3499C54.2149 50.223 51.0319 50.0002 48.0491 49.7915C47.6106 49.7608 47.1765 49.7304 46.7479 49.7007C43.3714 49.4665 40.3785 49.2755 38.2479 49.2755V45.2755C40.5441 45.2755 43.684 45.4785 47.0248 45.7103C47.4573 45.7403 47.8937 45.7708 48.3331 45.8016C51.3213 46.0106 54.4442 46.2291 57.3637 46.3536C60.7348 46.4973 63.713 46.509 65.8289 46.2623C66.8241 46.1463 67.4915 45.987 67.8843 45.8297C67.8658 44.9581 67.6121 44.4097 67.2982 44.0211C66.8929 43.5195 66.2191 43.0802 65.2054 42.7272C63.4663 42.1216 61.3491 41.952 59.2558 41.7844C58.7953 41.7476 58.336 41.7108 57.8821 41.6695C57.1161 41.5997 55.9972 41.5628 54.577 41.5192L54.4239 41.5145C53.0664 41.4728 51.493 41.4244 49.8543 41.3309C46.4974 41.1392 42.6623 40.7498 39.6542 39.743C38.6986 39.4231 37.9094 38.8516 37.2621 38.2972C36.7647 37.8711 36.2519 37.3645 35.7738 36.8921C35.643 36.763 35.5149 36.6364 35.3903 36.5146C34.1624 35.3147 32.9042 34.2048 31.1802 33.5144C30.6365 33.2966 29.7713 33.1306 28.5931 33.0512C27.4445 32.9738 26.1299 32.9861 24.7607 33.0501C22.9042 33.1367 21.0917 33.3076 19.5108 33.4566ZM68.1476 45.6998C68.148 45.6999 68.1434 45.7036 68.1324 45.7106C68.1416 45.7032 68.1471 45.6997 68.1476 45.6998Z" fill="#242424"/>
</svg>
