<svg width="65" height="87" viewBox="0 0 65 87" fill="none" xmlns="http://www.w3.org/2000/svg">
<path fill-rule="evenodd" clip-rule="evenodd" d="M7.43798 20.5056C6.5352 20.5056 5.66369 20.869 5.01674 21.525C4.36886 22.1819 4 23.0787 4 24.0196V54.3465C4 55.4511 3.10457 56.3465 2 56.3465C0.89543 56.3465 0 55.4511 0 54.3465V24.0196C0 22.0357 0.776995 20.1275 2.16876 18.7163C3.56144 17.3041 5.45628 16.5056 7.43798 16.5056C9.41969 16.5056 11.3145 17.3041 12.7072 18.7163C14.099 20.1275 14.876 22.0357 14.876 24.0196V43.3186C14.876 44.4231 13.9805 45.3186 12.876 45.3186C11.7714 45.3186 10.876 44.4231 10.876 43.3186V24.0196C10.876 23.0787 10.5071 22.1819 9.85923 21.525C9.21227 20.869 8.34077 20.5056 7.43798 20.5056Z" fill="black"/>
<path fill-rule="evenodd" clip-rule="evenodd" d="M18.5504 9.65918C17.5577 9.65918 16.6167 10.0429 15.9318 10.7085C15.2487 11.3722 14.876 12.26 14.876 13.1732V43.5001C14.876 44.6047 13.9805 45.5001 12.876 45.5001C11.7714 45.5001 10.876 44.6047 10.876 43.5001V13.1732C10.876 11.1615 11.6989 9.24428 13.1442 7.83984C14.5875 6.4373 16.5332 5.65918 18.5504 5.65918C20.5676 5.65918 22.5133 6.4373 23.9566 7.83984C25.4019 9.24428 26.2248 11.1615 26.2248 13.1732V40.7431C26.2248 41.8477 25.3294 42.7431 24.2248 42.7431C23.1202 42.7431 22.2248 41.8477 22.2248 40.7431V13.1732C22.2248 12.26 21.852 11.3722 21.169 10.7085C20.4841 10.0429 19.5431 9.65918 18.5504 9.65918Z" fill="black"/>
<path fill-rule="evenodd" clip-rule="evenodd" d="M40.7752 12.4885C39.7789 12.4885 38.8367 12.8716 38.1525 13.5326C37.4706 14.1914 37.1008 15.0699 37.1008 15.9708V40.8122C37.1008 41.9168 36.2054 42.8122 35.1008 42.8122C33.9963 42.8122 33.1008 41.9168 33.1008 40.8122V15.9708C33.1008 13.9637 33.9267 12.0533 35.3732 10.6559C36.8173 9.26068 38.7617 8.48853 40.7752 8.48853C42.7888 8.48853 44.7332 9.26068 46.1773 10.6559C47.6238 12.0533 48.4497 13.9637 48.4497 15.9708V54.3465C48.4497 55.451 47.5542 56.3465 46.4497 56.3465C45.3451 56.3465 44.4497 55.451 44.4497 54.3465V15.9708C44.4497 15.0699 44.0799 14.1914 43.398 13.5326C42.7138 12.8716 41.7716 12.4885 40.7752 12.4885Z" fill="black"/>
<path fill-rule="evenodd" clip-rule="evenodd" d="M29.6627 4C28.7612 4 27.8901 4.36353 27.2428 5.02107C26.5945 5.67968 26.2247 6.57956 26.2247 7.52435V40.6705C26.2247 41.775 25.3293 42.6705 24.2247 42.6705C23.1202 42.6705 22.2247 41.775 22.2247 40.6705V7.52435C22.2247 5.53885 23.0008 3.62844 24.3922 2.21502C25.7845 0.800525 27.6798 0 29.6627 0C31.6457 0 33.5409 0.800525 34.9333 2.21502C36.3246 3.62844 37.1007 5.53885 37.1007 7.52435V40.6705C37.1007 41.775 36.2053 42.6705 35.1007 42.6705C33.9961 42.6705 33.1007 41.775 33.1007 40.6705V7.52435C33.1007 6.57956 32.731 5.67968 32.0826 5.02107C31.4354 4.36353 30.5643 4 29.6627 4Z" fill="black"/>
<path fill-rule="evenodd" clip-rule="evenodd" d="M50.9181 38.2914C52.9678 34.393 57.8149 33.4441 61.3548 35.4576C63.1656 36.4872 64.3204 38.0453 64.777 39.8977C65.2203 41.6958 64.9732 43.6216 64.3007 45.4474C64.3003 45.4484 64.2999 45.4494 64.2996 45.4505L55.168 70.4229C55.1574 70.4518 55.1462 70.4803 55.1344 70.5086C53.2919 74.9083 50.6738 79.0889 46.3721 82.1464C42.0618 85.21 36.2678 87 28.3379 87C20.2564 87 13.1 84.2941 7.97883 78.7263C2.8724 73.1745 0 65.0073 0 54.4722C0 53.3676 0.89543 52.4722 2 52.4722C3.10457 52.4722 4 53.3676 4 54.4722C4 64.3004 6.67243 71.3972 10.9229 76.0184C15.1586 80.6237 21.1712 83 28.3379 83C35.6563 83 40.5803 81.3556 44.0548 78.886C47.5258 76.419 49.756 72.9831 51.4273 69.0055L60.5446 44.0719L60.5464 44.0671C61.0271 42.7629 61.0948 41.6726 60.8933 40.8551C60.7049 40.0911 60.2543 39.4333 59.3776 38.9348L59.3773 38.9346C57.565 37.9036 55.3834 38.4971 54.4964 40.0831L48.2058 55.2389C47.7823 56.259 46.6121 56.7428 45.5919 56.3194C44.5717 55.8959 44.0879 54.7256 44.5114 53.7054L50.8411 38.4554C50.8643 38.3996 50.89 38.3449 50.9181 38.2914Z" fill="black"/>
<path fill-rule="evenodd" clip-rule="evenodd" d="M31.3461 57.139C31.4944 57.161 31.6442 57.1721 31.7941 57.1721C32.8932 57.1721 33.9611 56.592 34.8033 55.5382C35.5528 54.6002 36.0737 53.3375 36.2718 51.9809C36.7404 48.754 35.3129 45.966 33.022 45.6286C32.8737 45.6066 32.724 45.5955 32.574 45.5955C31.4763 45.5969 30.4063 46.1763 29.5655 47.228C28.8153 48.1653 28.2916 49.4294 28.0963 50.7881C27.6277 54.0151 29.0552 56.803 31.3461 57.139ZM22.8085 57.1722C21.7101 57.1722 20.6414 56.592 19.7993 55.5382C19.0491 54.6002 18.5254 53.3375 18.33 51.9824C17.8615 48.754 19.289 45.9661 21.5799 45.6301C21.7282 45.608 21.8779 45.5969 22.0279 45.5969C23.1255 45.5969 24.1956 46.1764 25.0364 47.228C25.7866 48.1654 26.3103 49.4295 26.5063 50.7867C26.9748 54.0151 25.5474 56.803 23.2565 57.139C23.1082 57.1611 22.9584 57.1722 22.8085 57.1722ZM43.8891 55.1077C43.4963 54.1767 42.8438 53.5055 42.0016 53.1674L41.9903 53.1632C41.607 53.0134 41.1989 52.9368 40.7872 52.9373H40.7419C38.8141 52.9662 36.8459 54.6002 35.8452 57.0035C35.1113 58.7609 35.027 60.6511 35.6201 62.0599C36.0122 62.9915 36.6661 63.6628 37.5118 64.0008L37.521 64.0044C37.9044 64.154 38.3125 64.2306 38.7242 64.2302C40.6704 64.2302 42.6591 62.5963 43.6782 60.1612C44.4029 58.4059 44.4829 56.5172 43.8891 55.1077ZM36.1864 65.4731C35.0746 64.8068 34.0236 64.1766 33.3371 63.0444C31.4433 59.9106 30.2996 58.0191 27.301 58.0191C24.3024 58.0191 23.1559 59.9106 21.2578 63.0444C20.5706 64.1768 19.519 64.8076 18.4049 65.476L18.4014 65.4781L18.4013 65.4781C17.1225 66.2446 15.8012 67.0365 15.2308 68.5949C15.0091 69.1567 14.8974 69.7557 14.9017 70.3594C14.9017 72.8968 16.8834 74.9613 19.3179 74.9613C20.5741 74.9613 21.911 74.5272 23.3257 74.0678C24.686 73.6259 26.0922 73.1693 27.3081 73.1693C28.5239 73.1693 29.9266 73.6259 31.2819 74.0678L31.3201 74.0801C32.7178 74.5322 34.0357 74.9585 35.2841 74.9585C37.7151 74.9585 39.6932 72.894 39.6932 70.3566C39.6952 69.7524 39.5811 69.1534 39.357 68.5921C38.7867 67.0325 37.465 66.2399 36.1871 65.4735L36.1864 65.4731ZM17.0907 64.0008L17.0808 64.0044C16.6982 64.1539 16.2908 64.2306 15.8798 64.2302C13.9357 64.2302 11.9477 62.5956 10.9335 60.1634C10.2011 58.4059 10.1175 56.5179 10.7106 55.1062C11.102 54.1753 11.7552 53.5019 12.5974 53.1667L12.6073 53.1632C12.9906 53.0133 13.3987 52.9367 13.8104 52.9373C15.7545 52.9373 17.7425 54.5719 18.7567 57.0042C19.4892 58.7616 19.5727 60.6497 18.9796 62.0613C18.5883 62.9922 17.935 63.6628 17.0907 64.0008Z" fill="#FFC41E"/>
</svg>
