<svg width="93" height="73" viewBox="0 0 93 73" fill="none" xmlns="http://www.w3.org/2000/svg">
<path fill-rule="evenodd" clip-rule="evenodd" d="M13.8812 13.846L-0.000183105 13.846V28.757H13.8812V42.603H28.8301V28.757H42.7109V13.846L28.8301 13.846V0H13.8812V13.846ZM17.8812 4V17.846L3.99982 17.846V24.757H17.8812V38.603H24.8301V24.757H38.7109V17.846L24.8301 17.846V4H17.8812Z" fill="#FFC41E"/>
<path d="M43.7447 37.9576L62.574 44.4733V71.0531C62.574 71.5694 62.3623 72.0646 61.9855 72.4297C61.6087 72.7948 61.0976 72.9999 60.5647 72.9999H52.5277C51.9948 72.9999 51.4837 72.7948 51.1069 72.4297C50.7301 72.0646 50.5184 71.5694 50.5184 71.0531V57.4255H30.4258V71.0531C30.4258 71.5694 30.2142 72.0646 29.8373 72.4297C29.4605 72.7948 28.9495 72.9999 28.4166 72.9999H20.3795C19.8467 72.9999 19.3356 72.7948 18.9588 72.4297C18.582 72.0646 18.3703 71.5694 18.3703 71.0531V45.0257C13.7038 43.4135 10.3333 39.1329 10.3333 34.064C10.3333 33.0313 10.7566 32.041 11.5102 31.3108C12.2639 30.5806 13.286 30.1704 14.3518 30.1704C15.4175 30.1704 16.4397 30.5806 17.1933 31.3108C17.9469 32.041 18.3703 33.0313 18.3703 34.064C18.3723 35.096 18.7963 36.0853 19.5495 36.815C20.3027 37.5448 21.3236 37.9556 22.3888 37.9576H43.7447ZM74.6295 24.33V28.2236C74.6295 30.2889 73.7828 32.2696 72.2756 33.73C70.7683 35.1903 68.7241 36.0108 66.5925 36.0108H62.574V40.34L46.4999 34.7782V16.5428C46.4999 14.8089 48.6624 13.9402 49.9295 15.1667L53.3553 18.4896H60.09C61.4601 18.4896 63.0725 19.4533 63.6841 20.642L64.5833 22.3832H72.6203C73.1532 22.3832 73.6642 22.5883 74.041 22.9534C74.4179 23.3185 74.6295 23.8137 74.6295 24.33ZM60.5647 24.33C60.5647 23.945 60.4469 23.5686 60.2261 23.2484C60.0053 22.9283 59.6915 22.6787 59.3244 22.5314C58.9572 22.384 58.5532 22.3455 58.1635 22.4206C57.7737 22.4957 57.4157 22.6811 57.1347 22.9534C56.8537 23.2257 56.6623 23.5725 56.5848 23.9502C56.5073 24.3278 56.5471 24.7193 56.6992 25.075C56.8512 25.4307 57.1088 25.7348 57.4392 25.9487C57.7696 26.1626 58.1581 26.2768 58.5555 26.2768C59.0884 26.2768 59.5994 26.0717 59.9762 25.7066C60.353 25.3415 60.5647 24.8463 60.5647 24.33Z" fill="#242424"/>
<path d="M93.0001 60.9749C93.0001 67.6746 87.4832 72.9999 80.5427 72.9999H69.8649C62.9243 72.9999 57.4075 67.6746 57.4075 60.9749V55.8213H93.0001V60.9749Z" fill="#FFC41E"/>
</svg>
