<svg width="0" height="0" class="hidden">
  <symbol fill="none" xmlns="http://www.w3.org/2000/svg" viewBox="0 0 83 81" id="btn_autohelp">
    <path d="M31.685 19.764l15.948 5.512V47.76c0 .436-.18.855-.499 1.164a1.73 1.73 0 01-1.203.482h-6.807a1.73 1.73 0 01-1.203-.482 1.62 1.62 0 01-.499-1.164V36.232H20.405V47.76c0 .436-.18.855-.498 1.164a1.73 1.73 0 01-1.204.482h-6.807a1.73 1.73 0 01-1.203-.482 1.62 1.62 0 01-.498-1.164V25.743c-3.953-1.364-6.807-4.984-6.807-9.272 0-.874.358-1.712.997-2.33a3.462 3.462 0 012.406-.964 3.46 3.46 0 012.407.965 3.24 3.24 0 01.997 2.329c.001.873.36 1.71.998 2.327a3.469 3.469 0 002.405.966h18.087zM57.843 8.237v3.293a6.481 6.481 0 01-1.994 4.658 6.924 6.924 0 01-4.813 1.93h-3.404v3.662L34.02 17.075V1.65c0-1.467 1.831-2.202 2.904-1.164l2.902 2.81h5.704c1.16 0 2.526.816 3.044 1.821l.761 1.473h6.807c.451 0 .884.174 1.203.482.32.31.499.728.499 1.165zm-11.912 0c0-.326-.1-.644-.287-.915a1.691 1.691 0 00-.764-.607 1.754 1.754 0 00-.983-.093 1.72 1.72 0 00-.871.45c-.238.23-.4.524-.466.844-.066.319-.032.65.097.951.129.3.347.558.627.74a1.742 1.742 0 002.148-.206 1.62 1.62 0 00.499-1.164z" fill="#242424"></path>
    <path d="M17.103 29.531c-3.465 0-6.666 1.72-8.593 4.584L1.297 44.811A7.6 7.6 0 000 49.074v17.049a5.096 5.096 0 001.08 3.157 5.165 5.165 0 002.81 1.828l6.729 1.69a10.28 10.28 0 003.6 5.884A10.425 10.425 0 0020.75 81c4.804 0 8.814-3.297 9.97-7.72h24.153C56.03 77.703 60.04 81 64.843 81c4.804 0 8.814-3.297 9.971-7.72h2.999c2.837 0 5.187-2.332 5.187-5.147v-9.409a10.238 10.238 0 00-2.202-6.327 10.377 10.377 0 00-5.66-3.645l-14.024-3.538-10.131-11.982a10.326 10.326 0 00-3.556-2.728 10.406 10.406 0 00-4.386-.973H17.103zm0 5.147h11.428v10.294H7.457l5.351-7.962v-.08a5.077 5.077 0 011.858-1.666 5.125 5.125 0 012.435-.586h.002zm16.616 0h9.322a5.16 5.16 0 013.97 1.85l7.133 8.444H33.72V34.678zM5.188 50.118h54.144l14.59 3.619a5.129 5.129 0 012.819 1.823 5.059 5.059 0 011.072 3.164v9.409h-2.999c-1.157-4.424-5.167-7.72-9.97-7.72-4.804 0-8.814 3.296-9.97 7.72H30.72c-1.156-4.424-5.166-7.72-9.97-7.72-4.599 0-8.46 3.016-9.807 7.156l-5.755-1.444V50.12zM20.75 65.56c2.897 0 5.188 2.273 5.188 5.147 0 2.875-2.29 5.147-5.188 5.147-2.897 0-5.188-2.272-5.188-5.147 0-2.874 2.29-5.147 5.188-5.147zm44.094 0c2.897 0 5.187 2.273 5.187 5.147 0 2.875-2.29 5.147-5.187 5.147-2.897 0-5.188-2.272-5.188-5.147 0-2.874 2.29-5.147 5.188-5.147z" fill="#FFC41E"></path>
  </symbol>
  <symbol fill="none" xmlns="http://www.w3.org/2000/svg" viewBox="0 0 93 73" id="btn_eat">
    <path fill-rule="evenodd" clip-rule="evenodd" d="M13.881 13.846H0v14.911h13.88v13.846h14.95V28.757h13.88V13.846H28.83V0H13.88v13.846zm4-9.846v13.846H4v6.911h13.88v13.846h6.95V24.757h13.88v-6.911H24.83V4h-6.95z" fill="#FFC41E"></path>
    <path d="M43.745 37.958l18.829 6.515v26.58a1.92 1.92 0 01-.588 1.377c-.377.365-.888.57-1.421.57h-8.037a2.042 2.042 0 01-1.421-.57 1.917 1.917 0 01-.589-1.377V57.426H30.426v13.627c0 .516-.212 1.012-.589 1.377s-.887.57-1.42.57h-8.038a2.042 2.042 0 01-1.42-.57 1.917 1.917 0 01-.589-1.377V45.026c-4.666-1.613-8.037-5.893-8.037-10.962 0-1.033.424-2.023 1.177-2.753a4.085 4.085 0 012.842-1.14c1.066 0 2.088.41 2.841 1.14a3.833 3.833 0 011.177 2.753 3.84 3.84 0 001.18 2.751 4.092 4.092 0 002.839 1.143h21.356zM74.629 24.33v3.894a7.667 7.667 0 01-2.353 5.506 8.17 8.17 0 01-5.683 2.28h-4.019v4.33L46.5 34.778V16.543c0-1.734 2.162-2.603 3.43-1.376l3.425 3.323h6.735c1.37 0 2.982.963 3.594 2.152l.9 1.741h8.036c.533 0 1.044.205 1.421.57.377.366.588.86.588 1.377zm-14.064 0c0-.385-.118-.761-.339-1.082-.22-.32-.535-.57-.902-.717a2.069 2.069 0 00-1.16-.11 2.03 2.03 0 00-1.03.532c-.28.273-.472.62-.55.997a1.89 1.89 0 00.115 1.125c.152.356.41.66.74.874a2.056 2.056 0 002.537-.242c.377-.366.589-.86.589-1.377z" fill="#242424"></path>
    <path d="M93 60.975C93 67.675 87.483 73 80.543 73H69.865c-6.94 0-12.457-5.325-12.457-12.025V55.82H93v5.154z" fill="#FFC41E"></path>
  </symbol>
  <symbol fill="none" xmlns="http://www.w3.org/2000/svg" viewBox="0 0 84 82" id="btn_home">
    <path fill-rule="evenodd" clip-rule="evenodd" d="M40.438 2.711a2 2 0 012.812-.312l40 32.017a2 2 0 11-2.5 3.123l-40-32.017a2 2 0 01-.312-2.811z" fill="#242424"></path>
    <path fill-rule="evenodd" clip-rule="evenodd" d="M43.561 2.711a2 2 0 01-.311 2.811l-40 32.017a2 2 0 01-2.5-3.123l40-32.017a2 2 0 012.811.312z" fill="#242424"></path>
    <path fill-rule="evenodd" clip-rule="evenodd" d="M14 25.973a2 2 0 012 2V80a2 2 0 01-4 0V27.973a2 2 0 012-2zm56 0a2 2 0 012 2V80a2 2 0 01-4 0V27.973a2 2 0 012-2z" fill="#242424"></path>
    <path fill-rule="evenodd" clip-rule="evenodd" d="M12 80a2 2 0 012-2h56a2 2 0 110 4H14a2 2 0 01-2-2z" fill="#242424"></path>
    <path d="M42.288 45.749l10.434 3.645v14.87c0 .29-.118.566-.327.77a1.126 1.126 0 01-.787.32h-4.453c-.296 0-.579-.115-.788-.32a1.077 1.077 0 01-.326-.77V56.64H34.907v7.624c0 .29-.117.566-.326.77a1.126 1.126 0 01-.787.32H29.34c-.295 0-.578-.115-.787-.32a1.077 1.077 0 01-.326-.77V49.703c-2.586-.902-4.454-3.297-4.454-6.133 0-.578.235-1.132.652-1.54A2.252 2.252 0 0126 41.392c.59 0 1.157.23 1.575.638.417.408.652.962.652 1.54 0 .578.236 1.131.653 1.54.418.408.983.638 1.574.639h11.834zm17.114-7.625v2.179a4.31 4.31 0 01-1.304 3.08 4.504 4.504 0 01-3.15 1.276h-2.226v2.422l-8.908-3.111V33.768c0-.97 1.199-1.456 1.9-.77l1.9 1.859h3.731c.76 0 1.653.54 1.992 1.204l.498.974h4.454c.295 0 .578.115.787.32.209.204.326.48.326.77zm-7.794 0c0-.215-.065-.425-.187-.605a1.109 1.109 0 00-.5-.4 1.136 1.136 0 00-1.213.235 1.067 1.067 0 00-.241 1.187c.084.2.226.37.41.49a1.13 1.13 0 001.405-.136c.209-.205.326-.482.326-.77z" fill="#242424"></path>
    <path d="M36.767 6.696A10.99 10.99 0 0034.42 3.2 10.887 10.887 0 0030.956.857 10.723 10.723 0 0026.733 0a10.824 10.824 0 00-6.916 2.495A10.824 10.824 0 0012.9 0c-1.465 0-2.884.287-4.224.857A10.864 10.864 0 005.213 3.2a10.924 10.924 0 00-2.347 3.496A11.048 11.048 0 002 11c0 1.406.28 2.87.837 4.361.466 1.246 1.134 2.538 1.988 3.843 1.353 2.064 3.213 4.218 5.522 6.4 3.828 3.619 7.618 6.118 7.779 6.22l.977.642c.433.282.99.282 1.423 0l.977-.642c.161-.106 3.947-2.601 7.779-6.22 2.309-2.183 4.169-4.336 5.522-6.4.853-1.305 1.526-2.597 1.988-3.843.556-1.49.837-2.955.837-4.361a10.971 10.971 0 00-.862-4.303z" fill="#FFC41E"></path>
  </symbol>
  <symbol fill="none" xmlns="http://www.w3.org/2000/svg" viewBox="0 0 93 67" id="btn_money">
    <path fill-rule="evenodd" clip-rule="evenodd" d="M36.561 5.276c0-1.4.556-2.741 1.544-3.73A5.267 5.267 0 0141.832 0h31.62a5.27 5.27 0 013.727 1.545 5.28 5.28 0 011.543 3.731v13.191h-42.16V5.277zm30.304 2.638a1.317 1.317 0 00-1.318 1.32v2.638a1.32 1.32 0 001.318 1.319h5.27a1.317 1.317 0 001.317-1.32V9.235a1.32 1.32 0 00-1.317-1.32h-5.27z" fill="#FFC41E"></path>
    <path d="M36.561 23.743v2.639c0 1.399.556 2.741 1.544 3.73a5.267 5.267 0 003.727 1.546h31.62a5.267 5.267 0 003.727-1.546 5.28 5.28 0 001.543-3.73v-2.639h-42.16z" fill="#FFC41E"></path>
    <path fill-rule="evenodd" clip-rule="evenodd" d="M4 28.634V62h6.335V28.634H4zm-2-4a2 2 0 00-2 2V64a2 2 0 002 2h10.335a2 2 0 002-2V26.634a2 2 0 00-2-2H2zm14.854 7.024h4v25.48c2.268.105 3.983.38 5.668.68l.629.113c1.886.34 3.784.68 6.584.856l.242.015.233.073c11.007 3.458 17.371 4.484 22.22 4.014 4.781-.463 8.284-2.389 13.694-5.525 3.802-2.203 10.106-7.063 14.585-10.731 2.957-2.934 3.966-4.499 4.23-5.296a.904.904 0 00.06-.297.49.49 0 00-.05-.082 2.573 2.573 0 00-.259-.289c-.53-.531-.96-.739-1.295-.82-.338-.08-.746-.073-1.293.094-1.21.367-2.643 1.343-4.598 2.811l-.774.585c-3.58 2.713-8.362 6.336-14.514 6.776-4.683.335-10.91.116-16.359-.176a669.414 669.414 0 01-6.062-.36c-2.738-.17-4.865-.303-5.969-.303v-4c1.219 0 3.582.147 6.474.327 1.773.11 3.744.233 5.771.341 5.454.293 11.454.496 15.86.18 4.922-.351 8.803-3.277 12.541-6.094l.63-.474c1.84-1.381 3.833-2.832 5.837-3.44 1.06-.323 2.207-.44 3.391-.155 1.187.285 2.245.935 3.19 1.881.4.4.947 1.008 1.251 1.864.326.918.295 1.89-.035 2.888-.598 1.806-2.279 3.98-5.28 6.948l-.067.065-.072.06c-4.47 3.664-11.05 8.76-15.187 11.158-5.345 3.098-9.552 5.488-15.315 6.046-5.658.547-12.617-.679-23.574-4.108-2.908-.194-4.948-.562-6.796-.895l-.624-.112c-2.03-.361-3.97-.662-6.967-.662h-2V31.658zm72.142 9.364c.001 0 .003.004.004.017-.004-.01-.004-.017-.004-.017z" fill="#242424"></path>
    <path fill-rule="evenodd" clip-rule="evenodd" d="M19.51 33.457c-.796.075-1.534.144-2.189.195l-.307-3.988a134.02 134.02 0 001.96-.176c1.631-.153 3.658-.343 5.6-.434 1.447-.067 2.929-.085 4.288.006 1.33.09 2.685.292 3.805.741 2.492.998 4.218 2.581 5.519 3.853.166.162.322.315.468.46.456.45.831.82 1.21 1.145.488.418.817.61 1.06.69 2.463.825 5.836 1.199 9.158 1.388 1.585.09 3.112.138 4.478.18l.14.004c1.372.042 2.631.082 3.545.165.348.032.73.061 1.14.093 2.087.162 4.857.377 7.136 1.17 1.41.492 2.845 1.266 3.889 2.559 1.082 1.34 1.588 3.041 1.454 5.056-.108 1.617-1.353 2.472-2.246 2.874-.94.423-2.117.656-3.326.797-2.454.287-5.705.26-9.099.115-2.978-.127-6.161-.35-9.144-.559l-1.301-.09c-3.377-.234-6.37-.425-8.5-.425v-4c2.296 0 5.436.202 8.777.434.432.03.869.06 1.308.092 2.988.209 6.111.427 9.03.552 3.372.143 6.35.155 8.466-.092.995-.116 1.663-.275 2.055-.432-.018-.872-.272-1.42-.586-1.809-.405-.502-1.079-.94-2.093-1.294-1.739-.605-3.856-.775-5.95-.943-.46-.036-.919-.073-1.373-.114-.766-.07-1.885-.107-3.305-.15l-.153-.006c-1.358-.041-2.931-.09-4.57-.183-3.357-.192-7.192-.581-10.2-1.588-.955-.32-1.745-.891-2.392-1.446a29.773 29.773 0 01-1.488-1.405l-.384-.377c-1.228-1.2-2.486-2.31-4.21-3-.543-.218-1.409-.384-2.587-.464-1.148-.077-2.463-.065-3.832 0-1.857.086-3.67.257-5.25.406zM68.149 45.7l-.016.01a.085.085 0 01.016-.01z" fill="#242424"></path>
  </symbol>
  <symbol fill="none" xmlns="http://www.w3.org/2000/svg" viewBox="0 0 65 87" id="btn_volanter">
    <path fill-rule="evenodd" clip-rule="evenodd" d="M7.438 20.506a3.4 3.4 0 00-2.421 1.019A3.553 3.553 0 004 24.02v30.326a2 2 0 11-4 0V24.02c0-1.984.777-3.892 2.169-5.304a7.4 7.4 0 015.269-2.21 7.4 7.4 0 015.27 2.21 7.553 7.553 0 012.168 5.304v19.299a2 2 0 01-4 0v-19.3c0-.94-.369-1.837-1.017-2.494a3.4 3.4 0 00-2.421-1.02z" fill="#000"></path>
    <path fill-rule="evenodd" clip-rule="evenodd" d="M18.55 9.66a3.76 3.76 0 00-2.618 1.049 3.436 3.436 0 00-1.056 2.464V43.5a2 2 0 01-4 0V13.173c0-2.011.823-3.929 2.268-5.333a7.759 7.759 0 015.406-2.18c2.018 0 3.963.777 5.407 2.18a7.436 7.436 0 012.268 5.333v27.57a2 2 0 11-4 0v-27.57c0-.913-.373-1.8-1.056-2.464a3.76 3.76 0 00-2.619-1.05zm22.225 2.829c-.996 0-1.938.383-2.622 1.044A3.39 3.39 0 0037.1 15.97v24.841a2 2 0 11-4 0v-24.84a7.39 7.39 0 012.272-5.315 7.777 7.777 0 015.402-2.167c2.014 0 3.958.772 5.402 2.167a7.39 7.39 0 012.273 5.315v38.375a2 2 0 01-4 0V15.971c0-.901-.37-1.78-1.052-2.438a3.777 3.777 0 00-2.623-1.044z" fill="#000"></path>
    <path fill-rule="evenodd" clip-rule="evenodd" d="M29.663 4c-.902 0-1.773.364-2.42 1.021a3.57 3.57 0 00-1.018 2.503V40.67a2 2 0 01-4 0V7.524a7.57 7.57 0 012.167-5.309A7.395 7.395 0 0129.662 0c1.984 0 3.879.8 5.271 2.215a7.57 7.57 0 012.168 5.31V40.67a2 2 0 01-4 0V7.524c0-.944-.37-1.844-1.018-2.503A3.395 3.395 0 0029.663 4z" fill="#000"></path>
    <path fill-rule="evenodd" clip-rule="evenodd" d="M50.918 38.291c2.05-3.898 6.897-4.847 10.437-2.833 1.81 1.03 2.965 2.587 3.422 4.44.443 1.798.196 3.724-.476 5.55l-.001.002-9.132 24.973c-.01.029-.022.057-.034.086-1.842 4.4-4.46 8.58-8.762 11.637C42.062 85.21 36.268 87 28.338 87c-8.082 0-15.238-2.706-20.36-8.274C2.873 73.174 0 65.007 0 54.472a2 2 0 114 0c0 9.828 2.672 16.925 6.923 21.546C15.159 80.624 21.17 83 28.338 83c7.318 0 12.242-1.644 15.717-4.114 3.47-2.467 5.701-5.903 7.372-9.88l9.118-24.934.001-.005c.481-1.304.549-2.394.347-3.212-.188-.764-.639-1.422-1.515-1.92-1.813-1.031-3.995-.438-4.882 1.148l-6.29 15.156a2 2 0 01-3.695-1.534l6.33-15.25a2.21 2.21 0 01.077-.164z" fill="#000"></path>
    <path fill-rule="evenodd" clip-rule="evenodd" d="M31.346 57.139c.148.022.298.033.448.033 1.1 0 2.167-.58 3.01-1.634.749-.938 1.27-2.2 1.468-3.557.468-3.227-.96-6.015-3.25-6.352a3.053 3.053 0 00-.448-.033c-1.098 0-2.168.58-3.008 1.632-.75.937-1.274 2.201-1.47 3.56-.468 3.227.96 6.015 3.25 6.351zm-8.538.033c-1.098 0-2.167-.58-3.009-1.634-.75-.938-1.274-2.2-1.469-3.556-.468-3.228.959-6.016 3.25-6.352a3.05 3.05 0 01.448-.033c1.098 0 2.168.58 3.008 1.631.75.937 1.274 2.201 1.47 3.559.469 3.228-.959 6.016-3.25 6.352a3.04 3.04 0 01-.448.033zm21.081-2.064c-.393-.931-1.045-1.602-1.887-1.94l-.012-.005a3.294 3.294 0 00-1.203-.226h-.045c-1.928.03-3.896 1.663-4.897 4.067-.734 1.757-.818 3.647-.225 5.056.392.931 1.046 1.603 1.892 1.94l.009.004c.383.15.791.227 1.203.226 1.946 0 3.935-1.634 4.954-4.069.725-1.755.805-3.644.211-5.053zm-7.703 10.365c-1.111-.666-2.162-1.296-2.849-2.429-1.894-3.133-3.037-5.025-6.036-5.025-2.999 0-4.145 1.892-6.043 5.025-.687 1.133-1.739 1.764-2.853 2.432l-.004.002c-1.279.767-2.6 1.559-3.17 3.117a4.715 4.715 0 00-.33 1.764c0 2.538 1.982 4.602 4.417 4.602 1.256 0 2.593-.434 4.008-.893 1.36-.442 2.766-.899 3.982-.899 1.216 0 2.619.457 3.974.899l.038.012c1.398.452 2.716.879 3.964.879 2.431 0 4.41-2.065 4.41-4.602a4.717 4.717 0 00-.337-1.765c-.57-1.56-1.892-2.352-3.17-3.118zm-19.095-1.472l-.01.003a3.27 3.27 0 01-1.201.226c-1.944 0-3.932-1.634-4.947-4.067-.732-1.757-.816-3.645-.222-5.057.391-.93 1.044-1.604 1.886-1.94l.01-.003a3.29 3.29 0 011.203-.226c1.944 0 3.932 1.635 4.947 4.067.732 1.758.816 3.646.223 5.057-.392.931-1.045 1.602-1.89 1.94z" fill="#FFC41E"></path>
  </symbol>
</svg>